<mxfile host="app.diagrams.net" agent="Mozilla/5.0 (Windows NT 10.0; Win64; x64) AppleWebKit/537.36 (KHTML, like Gecko) Chrome/138.0.0.0 Safari/537.36 Edg/138.0.0.0" version="28.0.7">
  <diagram id="okirem-pro" name="Okirem KapsamlÄ± Yol HaritasÄ±">
    <mxGraphModel dx="1418" dy="752" grid="1" gridSize="10" guides="1" tooltips="1" connect="1" arrows="1" fold="1" page="1" pageScale="1" pageWidth="1800" pageHeight="1600" math="0" shadow="0">
      <root>
        <mxCell id="0" />
        <mxCell id="1" parent="0" />
        <mxCell id="100" value="src" style="swimlane;rounded=1;whiteSpace=wrap;html=1;fillColor=#e0e7ff;strokeColor=#6366f1;fontSize=16;fontStyle=1;" parent="1" vertex="1">
          <mxGeometry x="30" y="20" width="400" height="950" as="geometry" />
        </mxCell>
        <mxCell id="200" value="app" style="swimlane;rounded=1;whiteSpace=wrap;html=1;fillColor=#f0fdfa;strokeColor=#0ea5e9;fontSize=15;fontStyle=1;" parent="100" vertex="1">
          <mxGeometry x="40" y="60" width="360" height="800" as="geometry" />
        </mxCell>
        <mxCell id="210" value="core" style="rounded=1;whiteSpace=wrap;html=1;fillColor=#f3f4f6;strokeColor=#6366f1;" parent="200" vertex="1">
          <mxGeometry x="20" y="20" width="160" height="120" as="geometry" />
        </mxCell>
        <mxCell id="211" value="guards" style="rounded=1;whiteSpace=wrap;html=1;fillColor=#e0e7ff;strokeColor=#a78bfa;" parent="210" vertex="1">
          <mxGeometry x="10" y="30" width="60" height="40" as="geometry" />
        </mxCell>
        <mxCell id="212" value="providers" style="rounded=1;whiteSpace=wrap;html=1;fillColor=#e0e7ff;strokeColor=#a78bfa;" parent="210" vertex="1">
          <mxGeometry x="80" y="30" width="60" height="40" as="geometry" />
        </mxCell>
        <mxCell id="213" value="services" style="rounded=1;whiteSpace=wrap;html=1;fillColor=#e0e7ff;strokeColor=#a78bfa;" parent="210" vertex="1">
          <mxGeometry x="10" y="75" width="130" height="40" as="geometry" />
        </mxCell>
        <mxCell id="214" value="wizard" style="rounded=1;whiteSpace=wrap;html=1;fillColor=#fbcfe8;strokeColor=#f43f5e;" parent="210" vertex="1">
          <mxGeometry x="110" y="75" width="60" height="30" as="geometry" />
        </mxCell>
        <mxCell id="220" value="features" style="rounded=1;whiteSpace=wrap;html=1;fillColor=#dbeafe;strokeColor=#0ea5e9;" parent="200" vertex="1">
          <mxGeometry x="210" y="20" width="120" height="40" as="geometry" />
        </mxCell>
        <mxCell id="221" value="icons" style="rounded=1;whiteSpace=wrap;html=1;fillColor=#f1f5f9;strokeColor=#6366f1;" parent="200" vertex="1">
          <mxGeometry x="210" y="70" width="80" height="30" as="geometry" />
        </mxCell>
        <mxCell id="230" value="pages" style="swimlane;rounded=1;whiteSpace=wrap;html=1;fillColor=#f1f5f9;strokeColor=#6366f1;fontSize=15;" parent="200" vertex="1">
          <mxGeometry x="20" y="160" width="320" height="610" as="geometry" />
        </mxCell>
        <mxCell id="231" value="admin" style="rounded=1;whiteSpace=wrap;html=1;fillColor=#e0e7ff;strokeColor=#a78bfa;" parent="230" vertex="1">
          <mxGeometry x="15" y="30" width="110" height="60" as="geometry" />
        </mxCell>
        <mxCell id="232" value="auths" style="rounded=1;whiteSpace=wrap;html=1;fillColor=#e0e7ff;strokeColor=#a78bfa;" parent="230" vertex="1">
          <mxGeometry x="145" y="30" width="110" height="60" as="geometry" />
        </mxCell>
        <mxCell id="233" value="parent" style="rounded=1;whiteSpace=wrap;html=1;fillColor=#fbcfe8;strokeColor=#a21caf;" parent="230" vertex="1">
          <mxGeometry x="15" y="110" width="110" height="60" as="geometry" />
        </mxCell>
        <mxCell id="234" value="student" style="rounded=1;whiteSpace=wrap;html=1;fillColor=#bbf7d0;strokeColor=#22c55e;" parent="230" vertex="1">
          <mxGeometry x="145" y="110" width="110" height="60" as="geometry" />
        </mxCell>
        <mxCell id="235" value="teacher" style="rounded=1;whiteSpace=wrap;html=1;fillColor=#dbeafe;strokeColor=#0ea5e9;" parent="230" vertex="1">
          <mxGeometry x="80" y="190" width="110" height="60" as="geometry" />
        </mxCell>
        <mxCell id="240" value="components/shared" style="rounded=1;whiteSpace=wrap;html=1;fillColor=#f1f5f9;strokeColor=#06b6d4;" parent="230" vertex="1">
          <mxGeometry x="90" y="280" width="130" height="50" as="geometry" />
        </mxCell>
        <mxCell id="250" value="register-wizard&#xa;register-welcome" style="rounded=1;whiteSpace=wrap;html=1;fillColor=#fef9c3;strokeColor=#eab308;" parent="230" vertex="1">
          <mxGeometry x="15" y="350" width="120" height="50" as="geometry" />
        </mxCell>
        <mxCell id="251" value="student-dashboard" style="rounded=1;whiteSpace=wrap;html=1;fillColor=#bbf7d0;strokeColor=#22c55e;" parent="230" vertex="1">
          <mxGeometry x="145" y="350" width="120" height="50" as="geometry" />
        </mxCell>
        <mxCell id="252" value="teacher-dashboard" style="rounded=1;whiteSpace=wrap;html=1;fillColor=#dbeafe;strokeColor=#0ea5e9;" parent="230" vertex="1">
          <mxGeometry x="80" y="410" width="120" height="50" as="geometry" />
        </mxCell>
        <mxCell id="253" value="parent-dashboard" style="rounded=1;whiteSpace=wrap;html=1;fillColor=#fbcfe8;strokeColor=#a21caf;" parent="230" vertex="1">
          <mxGeometry x="15" y="470" width="120" height="50" as="geometry" />
        </mxCell>
        <mxCell id="254" value="lesson&#xa;(unit/topic manager)" style="rounded=1;whiteSpace=wrap;html=1;fillColor=#a5f3fc;strokeColor=#06b6d4;" parent="230" vertex="1">
          <mxGeometry x="145" y="470" width="120" height="50" as="geometry" />
        </mxCell>
        <mxCell id="255" value="admin-dashboard" style="rounded=1;whiteSpace=wrap;html=1;fillColor=#f3e8ff;strokeColor=#a78bfa;" parent="230" vertex="1">
          <mxGeometry x="80" y="530" width="120" height="50" as="geometry" />
        </mxCell>
        <mxCell id="256" value="GeÃ§miÅŸ &amp; Ä°statistik" style="rounded=1;whiteSpace=wrap;html=1;fillColor=#fff7ae;strokeColor=#a78bfa;" parent="230" vertex="1">
          <mxGeometry x="200" y="590" width="120" height="50" as="geometry" />
        </mxCell>
        <mxCell id="257" value="Ã–dÃ¼ller &amp; Avatarlar" style="rounded=1;whiteSpace=wrap;html=1;fillColor=#fdba74;strokeColor=#f59e42;" parent="230" vertex="1">
          <mxGeometry x="40" y="590" width="120" height="50" as="geometry" />
        </mxCell>
        <mxCell id="300" value="shared" style="rounded=1;whiteSpace=wrap;html=1;fillColor=#e0e7ff;strokeColor=#6366f1;" parent="100" vertex="1">
          <mxGeometry x="40" y="880" width="180" height="70" as="geometry" />
        </mxCell>
        <mxCell id="301" value="base&#xa;components" style="rounded=1;whiteSpace=wrap;html=1;fillColor=#fef9c3;strokeColor=#eab308;" parent="300" vertex="1">
          <mxGeometry x="10" y="25" width="70" height="35" as="geometry" />
        </mxCell>
        <mxCell id="302" value="charts/forms/icons&#xa;notifications/widgets" style="rounded=1;whiteSpace=wrap;html=1;fillColor=#d1fae5;strokeColor=#22c55e;" parent="300" vertex="1">
          <mxGeometry x="100" y="25" width="65" height="35" as="geometry" />
        </mxCell>
        <mxCell id="400" value="assets" style="rounded=1;whiteSpace=wrap;html=1;fillColor=#f3f4f6;strokeColor=#6366f1;" parent="100" vertex="1">
          <mxGeometry x="250" y="880" width="130" height="50" as="geometry" />
        </mxCell>
        <mxCell id="401" value="images/svg/fonts/brand" style="rounded=1;whiteSpace=wrap;html=1;fillColor=#fef9c3;strokeColor=#f59e42;" parent="400" vertex="1">
          <mxGeometry x="10" y="20" width="110" height="20" as="geometry" />
        </mxCell>
        <mxCell id="500" value="environments" style="rounded=1;whiteSpace=wrap;html=1;fillColor=#f1f5f9;strokeColor=#64748b;" parent="100" vertex="1">
          <mxGeometry x="330" y="950" width="80" height="30" as="geometry" />
        </mxCell>
        <mxCell id="600" value="scss" style="rounded=1;whiteSpace=wrap;html=1;fillColor=#f3e8ff;strokeColor=#a78bfa;" parent="100" vertex="1">
          <mxGeometry x="160" y="950" width="80" height="30" as="geometry" />
        </mxCell>
        <mxCell id="1000" value="ðŸ”­ DevamÄ±nda YapÄ±lacaklar / Future Work" style="rounded=1;whiteSpace=wrap;html=1;fillColor=#fee2e2;strokeColor=#ef4444;fontStyle=1;" parent="1" vertex="1">
          <mxGeometry x="460" y="40" width="480" height="540" as="geometry" />
        </mxCell>
        <mxCell id="1001" value="â€¢ Tam modÃ¼ler (Nx Monorepo) yapÄ±&#xa;â€¢ SSR/SSG Next steps&#xa;â€¢ Unit, topic, lesson CRUDâ€™unda Ã§oklu dil (i18n) desteÄŸi&#xa;â€¢ Role-based yetkilendirme ve granular permissions&#xa;â€¢ Firebase Cloud Functions ile arka plan jobâ€™larÄ±&#xa;â€¢ Realtime bildirim ve websocket ile anlÄ±k eventler&#xa;â€¢ Lottie/SVG animasyonlarÄ±, dinamik avatar sistemi&#xa;â€¢ Ã–zelleÅŸtirilebilir tema (dark/light) ve kullanÄ±cÄ± bazlÄ± ayarlar&#xa;â€¢ EriÅŸilebilirlik (a11y), Lighthouse skorlarÄ±&#xa;â€¢ Test coverage: e2e, unit, integration&#xa;â€¢ CI/CD pipeline (GitHub Actions, Firebase Hosting)&#xa;â€¢ Admin iÃ§in kullanÄ±cÄ± &amp; log yÃ¶netim paneli&#xa;â€¢ ZayÄ±f/eksik konulara gÃ¶re akÄ±llÄ± gÃ¶rev Ã¶neri motoru&#xa;â€¢ Progressive Web App (PWA) hazÄ±r&#xa;â€¢ API rate limiting, Firestore gÃ¼venlik kurallarÄ±&#xa;â€¢ EÄŸitim iÃ§eriÄŸi dÄ±ÅŸa aktarma (CSV, PDF, Excel)" style="rounded=0;whiteSpace=wrap;html=1;fillColor=#fff1f2;strokeColor=#ef4444;" parent="1000" vertex="1">
          <mxGeometry x="10" y="40" width="455" height="490" as="geometry" />
        </mxCell>
        <mxCell id="1002" value="ðŸŽ¯Â Projenin tÃ¼m kritik alanlarÄ± detaylÄ± iÅŸaretlenmiÅŸtir. KutularÄ±n iÃ§ine tÄ±klayarak alt detay/Ã¶zellik ekleyebilirsin!" style="rounded=1;whiteSpace=wrap;html=1;fillColor=#fdf6b2;strokeColor=#f59e42;" parent="1000" vertex="1">
          <mxGeometry x="10" y="10" width="440" height="25" as="geometry" />
        </mxCell>
        <mxCell id="n8ma8ZrflDdcTT20MiTK-1002" value="" style="edgeStyle=orthogonalEdgeStyle;rounded=0;orthogonalLoop=1;jettySize=auto;html=1;" edge="1" parent="1" source="220" target="1001">
          <mxGeometry relative="1" as="geometry" />
        </mxCell>
        <mxCell id="n8ma8ZrflDdcTT20MiTK-1003" value="" style="edgeStyle=orthogonalEdgeStyle;rounded=0;orthogonalLoop=1;jettySize=auto;html=1;" edge="1" parent="1" source="221" target="1001">
          <mxGeometry relative="1" as="geometry" />
        </mxCell>
      </root>
    </mxGraphModel>
  </diagram>
</mxfile>
